<?xml version="1.0" encoding="UTF-8"?>
<svg width="23px" height="24px" viewBox="0 0 23 24" version="1.1" xmlns="http://www.w3.org/2000/svg" xmlns:xlink="http://www.w3.org/1999/xlink">
    <title>bootcamp</title>
    <g id="Page-1" stroke="none" stroke-width="1" fill="none" fill-rule="evenodd">
        <path d="M7.9533774,4.31606727 C8.0214583,4.31606727 8.0902996,4.31313455 8.1593354,4.30682319 C9.362941,4.1984271 10.2571607,3.17789863 10.1733159,2.00836755 C10.0894711,0.83883646 9.0582346,-0.05184886 7.8507434,0.00234738 C6.64325228,0.05654362 5.70124172,1.03579486 5.72912749,2.20783758 C5.75701326,3.3798803 6.74459394,4.31594727 7.9533774,4.31606727 Z M6.97473643,1.35971814 C7.33507244,0.94034141 7.9359003,0.79900794 8.4542971,1.01167929 C8.9726938,1.22435063 9.2865747,1.74094171 9.2272401,2.28380374 C9.1679055,2.82666577 8.7493292,3.26795225 8.1964804,3.37048785 C7.64363172,3.47302346 7.08670906,3.21266058 6.825038,2.72933474 C6.58371659,2.28563889 6.64286462,1.74448346 6.97473643,1.35971814 Z M9.0271018,12.7382515 L11.7702851,23.4269 C11.8336236,23.6742781 11.6784302,23.9246719 11.4234614,23.9864759 C11.3856341,23.9953834 11.3468536,23.999999 11.3079273,23.999999 C11.0894543,23.9997319 10.8992086,23.8552815 10.8465067,23.6496499 L8.1032881,12.9610014 C7.9048231,12.1871713 7.8044358,11.3927491 7.804351,10.5953389 L7.804351,8.3387962 C7.8104763,6.96235251 8.852696,5.79680255 10.2567668,5.59617575 C11.551587,5.39321156 12.8757095,5.45240778 14.1457872,5.77003829 L13.0234866,1.57573644 L12.3391409,1.57573644 C12.076214,1.57573644 11.8630696,1.36901556 11.8630696,1.11401243 C11.8630696,0.8590093 12.076214,0.65228842 12.3391409,0.65228842 L13.3917071,0.65228842 C13.6085099,0.65228842 13.7979303,0.79435469 13.852438,0.99786968 L15.296947,6.39472573 C15.3434471,6.56790378 15.2825509,6.75154415 15.1406811,6.86596586 C14.9988112,6.98038757 14.8015346,7.00497025 14.634449,6.92904754 C13.2883557,6.40752715 11.8184831,6.262407 10.3916466,6.51015674 C9.455532,6.64399743 8.7606857,7.42108956 8.7565465,8.3387962 L8.7565465,10.5953046 C8.7566299,11.3176281 8.8474848,12.0372493 9.0271018,12.7382515 Z M6.6344203,14.1428121 C6.75713957,14.1715976 6.86304104,14.2464875 6.92882514,14.3510051 C6.99460924,14.4555228 7.01488666,14.5811057 6.98519614,14.7001241 L4.75221299,23.6469401 C4.70049349,23.8539577 4.50949074,23.9998112 4.28986404,24 C4.25195282,24 4.21417238,23.9956856 4.1773537,23.9869218 C4.05463317,23.9581384 3.94873021,23.8832489 3.88294573,23.7787306 C3.81716125,23.6742124 3.79688488,23.5486284 3.82657786,23.4296098 L6.05955216,14.4827938 C6.12165455,14.2350606 6.37890437,14.082921 6.6344203,14.1428121 Z M5.57067817,6.5518666 C4.14374431,6.30466797 2.67395497,6.44977204 1.32764592,6.9707574 C1.16702449,7.04365417 0.977935049,7.02389147 0.837014649,6.91947904 C0.696094259,6.8150666 0.626718389,6.64332405 0.657004739,6.47385784 L1.61986334,1.07723332 C1.65935506,0.85589002 1.85734571,0.69418693 2.0889585,0.69418693 L3.14150706,0.69418693 C3.40443395,0.69418693 3.6175783,0.90090781 3.6175783,1.15591094 C3.6175783,1.41091408 3.40443395,1.61763496 3.14150706,1.61763496 L2.48969865,1.61763496 L1.73746648,5.83425809 C3.03075602,5.4962287 4.38345616,5.42928553 5.7055049,5.63788561 C5.87433215,5.66071544 6.01768375,5.76936083 6.08133552,5.92272559 C6.14498729,6.07609036 6.11922092,6.25075882 6.01378278,6.38066091 C5.90834464,6.51056299 5.739333,6.5758653 5.57067817,6.5518666 Z M18.595025,11.1661826 L18.595025,11.1662169 C18.5638693,11.1661906 18.5353844,11.1832748 18.5214901,11.2103204 C18.5075959,11.2373659 18.5106881,11.2697094 18.5294728,11.2938161 C18.5410908,11.3091486 18.5517892,11.3253815 18.5620102,11.3420689 L21.3245302,16.0415539 C21.5372944,16.4037178 21.5353047,16.8483202 21.319307,17.2086791 C21.1033093,17.569038 20.705933,17.7907164 20.2761549,17.7906068 L12.0839082,17.7906068 C11.9138243,17.7906068 11.7566603,17.7026027 11.6716184,17.5597448 C11.5865764,17.4168869 11.5865764,17.2408786 11.6716184,17.0980207 C11.7566603,16.9551628 11.9138243,16.8671587 12.0839082,16.8671587 L20.2761549,16.8671587 C20.3667056,16.8672531 20.4504577,16.8205778 20.4959702,16.744655 C20.5414826,16.6687322 20.5418691,16.5750496 20.4969846,16.498776 L17.7470198,11.8206603 C17.5260991,11.5141376 17.4993222,11.1138779 17.6775505,10.7822377 C17.8557788,10.4505975 18.2094191,10.2426429 18.595025,10.242726 L20.3616981,10.242726 L21.7471358,7.55555294 C21.8227939,7.40729034 21.9744448,7.30960501 22.1446918,7.29946877 C22.3149388,7.28933254 22.4777707,7.36829406 22.5715591,7.50646808 C22.6653475,7.6446421 22.6757629,7.82091769 22.5988634,7.96857829 L21.0818792,10.910967 C21.0011899,11.0673698 20.836343,11.1661618 20.6560199,11.1661826 L18.595025,11.1661826 Z M20.3533251,18.7983835 C20.6162519,18.7983835 20.8293963,19.0051044 20.8293963,19.2601075 C20.8293963,19.5151106 20.6162519,19.7218315 20.3533251,19.7218315 L12.9519044,19.7218315 C12.6889775,19.7218315 12.4758332,19.5151106 12.4758332,19.2601075 C12.4758332,19.0051044 12.6889775,18.7983835 12.9519044,18.7983835 L20.3533251,18.7983835 Z" id="bootcamp" fill="#000000" fill-rule="nonzero"></path>
    </g>
</svg>