<?xml version="1.0" encoding="UTF-8"?>
<svg width="23px" height="24px" viewBox="0 0 23 24" version="1.1" xmlns="http://www.w3.org/2000/svg" xmlns:xlink="http://www.w3.org/1999/xlink">
    <title>cardio</title>
    <g id="Page-1" stroke="none" stroke-width="1" fill="none" fill-rule="evenodd">
        <path d="M2.85424302,4.32027132 C4.0499669,4.31853283 5.02553397,3.38012396 5.05137032,2.20683001 C5.07720667,1.03353606 4.14385943,0.05463564 2.94932858,0.00219548 C1.75479774,-0.05024469 0.73613192,0.84296194 0.65513626,2.01383438 C0.5741406,3.18470682 1.46044937,4.20485244 2.65124011,4.31135945 C2.71907109,4.31745447 2.78689206,4.32027132 2.85424302,4.32027132 Z M1.68328626,2.51568604 C1.52334736,2.01063375 1.7189388,1.4623449 2.16493491,1.16551154 C2.61093101,0.86867818 3.20229451,0.89320802 3.62118175,1.22591686 C4.04006899,1.55862571 4.18782716,2.12115675 3.9850398,2.6111631 C3.78225244,3.10116945 3.27667833,3.40324891 2.74005139,3.35504104 C2.24740736,3.31040141 1.83049791,2.97926346 1.68328626,2.51568604 Z M6.0601089,6.72934257 L8.73222711,9.3517099 C9.63705251,10.2349097 10.1441794,11.4367373 10.1405469,12.6892057 L10.1405469,23.5199662 C10.1405469,23.7850815 9.92155111,24 9.65143031,24 C9.38130951,24 9.16233331,23.7850815 9.16233331,23.5199662 L9.16233331,12.6892057 C9.16523681,11.6915013 8.76131701,10.734127 8.04061721,10.0305039 L5.368499,7.40813667 C4.86325895,6.93467079 4.06804321,6.93467079 3.56280316,7.40813667 C3.06511546,7.89790838 3.06511546,8.6906005 3.56280316,9.1803722 L5.47835058,11.0601883 L5.47835058,9.73494 C5.47835058,9.4698246 5.69732676,9.2549061 5.96744758,9.2549061 C6.23756839,9.2549061 6.45654458,9.4698246 6.45654458,9.73494 L6.45654458,12.2190162 C6.45660107,12.41319 6.3374439,12.5882664 6.15466196,12.6625693 C5.97188002,12.7368722 5.76149005,12.6957604 5.62164263,12.5584132 L2.87119326,9.8591663 C1.99059856,8.9948894 1.99059857,7.59361956 2.8711933,6.72934261 C3.75178802,5.86506565 5.17951416,5.86506564 6.0601089,6.72934257 Z M22.6158258,5.01899935 C22.7148082,5.26566082 22.5914609,5.54438952 22.3402319,5.64176054 L11.8506918,9.7028258 C11.688155,9.7657974 11.5037357,9.73888 11.3669027,9.6322132 C11.2300698,9.5255463 11.1616114,9.3553353 11.1873152,9.185697 C11.2130189,9.0160586 11.3289799,8.872765 11.4915166,8.8097935 L21.9810468,4.74874783 C22.2323696,4.65153374 22.5164274,4.7724688 22.6158258,5.01899935 Z M6.96355183,4.9325012 C6.69343102,4.9325012 6.47445483,4.71758273 6.47445483,4.45246736 C6.47445483,4.18735199 6.69343102,3.9724335 6.96355183,3.9724335 L11.9240228,3.9724335 C12.1218626,3.97237808 12.3002446,4.08932721 12.3759504,4.26872213 C12.4516561,4.44811705 12.4097681,4.6546084 12.2698278,4.7918644 L9.67579061,7.33804892 C9.55224641,7.45930381 9.37217681,7.50665924 9.20341231,7.46227688 C9.03464781,7.41789451 8.90282761,7.28851708 8.85760731,7.12287982 C8.81238701,6.95724256 8.86063651,6.78050971 8.98418071,6.65925483 L10.7433059,4.9325012 L6.96355183,4.9325012 Z" id="cardio" fill="#000000" fill-rule="nonzero"></path>
    </g>
</svg>