<?xml version="1.0" encoding="UTF-8"?>
<svg width="22px" height="24px" viewBox="0 0 22 24" version="1.1" xmlns="http://www.w3.org/2000/svg" xmlns:xlink="http://www.w3.org/1999/xlink">
    <title>cycling</title>
    <g id="Page-1" stroke="none" stroke-width="1" fill="none" fill-rule="evenodd">
        <path d="M10.2805499,4.21893202 C11.4500652,4.57862647 12.6997737,3.95532124 13.0772336,2.82405662 L13.0777177,2.82379482 C13.3549702,1.99148417 13.0869303,1.07931524 12.398793,0.5133401 C11.7106557,-0.05263504 10.7382183,-0.16072666 9.93568269,0.23955222 C9.13314709,0.63983111 8.65888609,1.46948932 8.73441549,2.34101356 C8.80994489,3.2125378 9.42035969,3.95394115 10.2805499,4.21893202 Z M9.77370559,1.80203814 C9.93684959,1.30160774 10.4157602,0.96124072 10.9573817,0.96078654 C11.0804785,0.96078654 11.2028752,0.97872688 11.32047,1.01398792 C11.7994125,1.15720725 12.1419923,1.56608957 12.1882253,2.04968743 C12.2344582,2.5332853 11.9752225,2.99618492 11.5315808,3.22221283 C11.0879391,3.44824075 10.5474219,3.39280168 10.16245,3.08178561 C9.77747799,2.77076953 9.62400619,2.26553987 9.77370559,1.80203814 Z M7.13204739,6.58867882 L4.95350647,9.4911157 C4.70613184,9.8347531 4.75793361,10.3024792 5.07492617,10.5874329 L9.09307979,13.5883966 C9.21462369,13.6793608 9.28580459,13.8197637 9.28582019,13.9685732 L9.28582019,20.5011725 C9.28666659,20.6732232 9.19242299,20.8325567 9.03878739,20.9188197 C8.88515189,21.0050827 8.69562039,21.0050827 8.54198479,20.9188197 C8.38834929,20.8325567 8.29410559,20.6732232 8.29495209,20.5011725 L8.29495209,14.2042759 L4.43552785,11.3195982 C3.72990835,10.7083351 3.60681534,9.6826447 4.148849,8.930805 L6.30429931,6.05916309 C6.66894889,5.342932 7.42562879,4.89320439 8.24980209,4.9027139 C9.07397539,4.91252868 9.81920399,5.37986383 10.1658626,6.10443389 L12.1850999,9.5833591 L13.9974452,9.5833591 C14.2701441,9.5846187 14.4905232,9.7991753 14.4905232,10.0634097 C14.4905232,10.327644 14.2701441,10.5422006 13.9974452,10.5434602 L11.8952575,10.5434602 C11.7161432,10.543417 11.5509752,10.4497802 11.463179,10.298507 L9.28458179,6.54134628 C9.09923199,6.1330176 8.68440609,5.8675843 8.22405919,5.86275323 C7.77660739,5.86362687 7.37003559,6.11513208 7.18089669,6.50805314 C7.16733489,6.53639181 7.15097559,6.5633928 7.13204739,6.58867882 Z M5.52192182,19.4098515 L5.52186553,19.4098515 C5.78857566,19.4266766 5.99344515,19.6454396 5.98489571,19.9042828 C5.97634628,20.1631261 5.75745959,20.3687484 5.49018495,20.3690145 L5.45753617,20.3680764 C5.28591141,20.3571713 5.11663268,20.3235703 4.95440712,20.2682079 C4.92403249,20.2610191 4.88816386,20.2457688 4.85512104,20.2349911 L1.80809995,23.8047961 C1.63362413,24.0090806 1.32127134,24.0376371 1.11044045,23.8685788 C0.899609558,23.6995206 0.870137928,23.3968665 1.04461373,23.1925821 L4.03239416,19.692145 C3.96631068,19.635229 3.90419431,19.5741303 3.8464537,19.509251 C3.76334797,19.4017529 3.68623186,19.2900273 3.61543539,19.1745524 C3.47117753,18.904912 3.3815828,18.6109839 3.35149811,18.3086691 C3.32628835,18.1563325 3.32652023,18.0010594 3.35218486,17.8487941 C3.36526273,17.6911283 3.39935452,17.5357669 3.45361,17.3865846 C3.53911087,17.1015301 3.68834423,16.8382155 3.89070969,16.6153446 C3.97068531,16.5052422 4.06310681,16.4041429 4.16625418,16.3139283 C4.24870555,16.2497912 4.33542759,16.1909864 4.42585706,16.1378957 L3.80288445,15.1470977 C3.46661152,14.5421162 2.87445224,14.1095855 2.18163583,13.9628898 L1.14307796,13.9628898 C0.870379128,13.9616302 0.649999988,13.7470736 0.649999988,13.4828392 C0.649999988,13.2186048 0.870379128,13.0040482 1.14307796,13.002788 L2.23242158,13.002788 C2.26466297,13.002788 2.2968332,13.0057225 2.32847656,13.0117119 C3.32074179,13.2006474 4.1751085,13.8069334 4.66044421,14.6665508 L5.38015854,15.8102769 C5.40269746,15.8077461 5.42448208,15.8034263 5.4471561,15.8014954 C5.71822831,15.7811586 5.95555697,15.9763236 5.97892441,16.2387902 C6.00229185,16.5012568 5.80296382,16.7329207 5.53230188,16.7578658 C5.44704794,16.7648125 5.36275291,16.7802049 5.28073736,16.803802 C5.20228789,16.8225327 5.1271265,16.852396 5.05768987,16.8924237 C4.96897413,16.9352366 4.88492554,16.9865835 4.80681209,17.04569 C4.76384709,17.0870674 4.72520175,17.1324528 4.69143804,17.181186 C4.67757927,17.2009483 4.6623096,17.2197462 4.645741,17.2374418 C4.58831655,17.2981314 4.53868585,17.3653338 4.49793207,17.4375824 C4.45554025,17.5129364 4.42202794,17.5926704 4.39802678,17.6752815 C4.36609365,17.7596126 4.34623345,17.8477849 4.33900003,17.9373394 C4.33793554,17.953839 4.33591716,17.9702677 4.33295438,17.9865483 C4.3215498,18.0512406 4.3215498,18.1173385 4.33295438,18.1820309 C4.34861527,18.3671653 4.3999616,18.5478132 4.48433216,18.7146119 C4.51820809,18.767137 4.57435274,18.8487008 4.63460664,18.9279302 C4.68387277,18.9874369 4.7402201,19.0410973 4.80247769,19.0877961 C4.81859093,19.1002552 4.83399949,19.1135466 4.84863631,19.1276126 C4.90021462,19.1776364 4.9576057,19.2216961 5.01965966,19.2589088 C5.08926495,19.3000537 5.16475838,19.3310154 5.24369788,19.3507922 C5.33328113,19.3824959 5.4268641,19.402361 5.52192182,19.4098515 Z M17.124242,20.597583 C18.6339224,19.5773624 19.0729778,17.5999905 18.1298892,16.0684534 C17.1868006,14.5369163 15.1823789,13.9721973 13.5388023,14.7749762 C11.8952258,15.5777551 11.1715903,17.4749503 11.8813302,19.1204629 C12.5910702,20.7659754 14.4927529,21.6000509 16.2370956,21.0308955 L17.9184068,23.7654378 C18.0584208,23.9932757 18.3625425,24.0679954 18.5976816,23.9323289 C18.8328208,23.7966624 18.9099349,23.5019838 18.7699209,23.2741459 L17.124242,20.597583 Z M14.3738632,20.1373807 C13.038392,19.7349395 12.2924275,18.3597461 12.7076553,17.065709 C13.122883,15.7716718 14.5420839,15.0487568 15.8776234,15.450985 C17.2131629,15.8532132 17.959361,17.2282876 17.544353,18.522391 C17.3490607,19.1466386 16.903642,19.6689689 16.3077664,19.9725022 C15.7118908,20.2760355 15.0153026,20.3354327 14.3738745,20.1374025 L14.3738632,20.1373807 Z M21.4569835,5.76760818 C21.5610666,5.84531681 21.629022,5.95991056 21.6458963,6.08617331 C21.6627706,6.21243607 21.627181,6.34002196 21.546959,6.44085599 L17.6686436,11.3167838 C17.5611048,11.454 17.3859132,11.5248396 17.2096111,11.5023958 C17.0333091,11.4799519 16.8829477,11.3676683 16.8156383,11.2081933 C16.7483289,11.0487183 16.7743992,10.866521 16.8839469,10.730805 L20.7622736,5.8548772 C20.8423373,5.75388105 20.9605943,5.6879144 21.0909365,5.67154089 C21.2212787,5.65516738 21.3529869,5.68973357 21.4569835,5.76760818 Z" id="cycling" fill="#000000" fill-rule="nonzero"></path>
    </g>
</svg>