<?xml version="1.0" encoding="UTF-8"?>
<svg width="25px" height="20px" viewBox="0 0 25 20" version="1.1" xmlns="http://www.w3.org/2000/svg" xmlns:xlink="http://www.w3.org/1999/xlink">
    <title>meditation</title>
    <g id="Page-1" stroke="none" stroke-width="1" fill="none" fill-rule="evenodd">
        <path d="M24.075,20 L0.475000015,20 C0.275000015,20 0.0750000155,19.9 0.0750000155,19.8 C-0.0249999845,19.7 -0.0249999845,19.5 0.0750000155,19.3 L2.77500002,14.9 C2.87500002,14.8 2.97500002,14.7 3.17500002,14.7 L4.77500002,14.7 C5.07500002,14.7 5.27500002,14.9 5.27500002,15.2 C5.27500002,15.5 5.07500002,15.7 4.77500002,15.7 L3.37500002,15.7 L1.27500002,19.2 L23.375,19.2 L21.475,15.6 L20.175,15.6 C19.875,15.6 19.675,15.4 19.675,15.1 C19.675,14.8 19.875,14.6 20.175,14.6 L21.775,14.6 C21.975,14.6 22.075,14.7 22.175,14.8 L24.575,19.3 C24.675,19.4 24.675,19.6 24.575,19.8 C24.375,19.9 24.275,20 24.075,20 L24.075,20 Z M15.675,6.5 C15.975,7.1 16.975,9.9 17.275,10.6 L19.375,12.2 C19.575,12.4 19.575,12.6 19.475,12.8 C19.275,13 19.075,13 18.875,12.9 L16.675,11.2 L16.475,11 C16.075,10 15.175,7.4 14.875,6.9 C14.575,6.4 14.275,6.3 14.075,6.4 C13.675,6.6 13.675,7.3 13.675,7.3 L13.675,12.5 L17.875,14 C18.075,14.1 18.175,14.2 18.175,14.4 C18.175,14.6 18.075,14.8 17.875,14.8 L14.029,16.038 L16.075,16.7 C16.275,16.8 16.475,17 16.375,17.3 C16.275,17.5 16.075,17.6 15.875,17.6 L15.775,17.6 L12.485,16.536 L8.87500002,17.7 C8.77500002,17.6 8.77500002,17.6 8.67500002,17.6 C8.47500002,17.6 8.27500002,17.5 8.27500002,17.3 C8.17500002,17.1 8.37500002,16.8 8.57500002,16.7 L16.175,14.3 L12.975,13.2 C12.775,13.1 12.675,13 12.675,12.8 L12.675,7.3 C12.675,6.8 12.875,5.9 13.675,5.6 C14.275,5.3 15.075,5.5 15.675,6.5 Z M11.275,12.9 C11.375,13.1 11.275,13.4 10.975,13.5 L8.47500002,14.4 L10.075,14.9 C10.275,15 10.475,15.2 10.375,15.5 C10.375,15.5 10.175,15.7 9.97500002,15.7 L9.87500002,15.7 L6.87500002,14.8 C6.67500002,14.7 6.57500002,14.6 6.57500002,14.4 C6.57500002,14.2 6.67500002,14 6.87500002,14 L10.675,12.6 C10.875,12.5 11.175,12.6 11.275,12.9 Z M11.075,5.9 C11.275,6 11.375,6.3 11.275,6.5 L8.87500002,11.1 C8.87500002,11.2 8.77500002,11.2 8.67500002,11.3 L6.37500002,12.7 L6.17500002,12.7 C5.97500002,12.7 5.87500002,12.6 5.77500002,12.5 C5.67500002,12.3 5.67500002,12 5.97500002,11.9 L8.17500002,10.6 L10.475,6.1 C10.575,5.9 10.875,5.8 11.075,5.9 Z M12.275,0.2 C13.375,0.2 14.375,1.1 14.475,2.3 L14.475,2.4 C14.475,3.5 13.575,4.5 12.375,4.5 C11.175,4.5 10.175,3.5 10.175,2.4 C10.175,1.2 11.175,0.2 12.275,0.2 Z M12.275,1.1 C11.575,1.1 11.075,1.7 11.075,2.4 C11.075,3.1 11.675,3.6 12.375,3.6 C12.975,3.6 13.575,3 13.575,2.3 C13.475,1.7 13.075,1.1 12.275,1.1 Z" id="meditation" fill="#000000" fill-rule="nonzero"></path>
    </g>
</svg>