<?xml version="1.0" encoding="UTF-8"?>
<svg width="21px" height="22px" viewBox="0 0 21 22" version="1.1" xmlns="http://www.w3.org/2000/svg" xmlns:xlink="http://www.w3.org/1999/xlink">
    <title>strength</title>
    <g id="Page-1" stroke="none" stroke-width="1" fill="none" fill-rule="evenodd">
        <path d="M10.3244178,4.34493127 C10.3928492,4.35098282 10.4609751,4.35396799 10.5287956,4.35388842 C11.7338985,4.35209625 12.7170784,3.40632268 12.743049,2.22387746 C12.7690196,1.04143224 11.8282785,0.05495792 10.6243736,0.00220456 C9.4204686,-0.0505488 8.3938941,0.84972062 8.3123897,2.02973243 C8.2308853,3.20974424 9.1242725,4.23774625 10.3244178,4.34493127 Z M10.1435399,0.97255415 C10.6397241,0.82058209 11.1803259,0.97700742 11.5131413,1.3688539 C11.8459567,1.76070039 11.9054041,2.31075417 11.6637497,2.76240173 C11.4220953,3.21404929 10.9269575,3.47829288 10.4093302,3.43185642 C9.8917029,3.38541996 9.4535852,3.03745381 9.2993697,2.55029268 C9.0931446,1.88624581 9.4694573,1.18292023 10.1435399,0.97254478 L10.1435399,0.97255415 Z M15.484326,14.6266347 C16.2187563,14.6273725 16.8140144,15.2113686 16.8150245,15.9321568 L16.8150245,21.5415441 C16.8150245,21.7947423 16.605882,22 16.3478917,22 C16.0899014,22 15.8807589,21.7947423 15.8807589,21.5415441 L15.8807589,15.9321568 C15.8804168,15.7174933 15.7030525,15.5436289 15.484326,15.5435465 L11.1802234,15.5435465 C10.9222331,15.5435465 10.7130906,15.3382888 10.7130906,15.0850906 C10.7130906,14.8318924 10.9222331,14.6266347 11.1802234,14.6266347 L15.484326,14.6266347 Z M20.8632063,7.4189186 C20.950823,7.5048968 21,7.621524 21,7.7431233 C21,7.8647226 20.9506967,7.9813246 20.8630345,8.0672581 L20.0058926,8.9082821 L20.0054345,8.9089566 L20.0047568,8.9093969 L19.1473572,9.7506176 C19.0296655,9.8679025 18.8569338,9.9142511 18.6948119,9.8720476 C18.53269,9.8298442 18.4060721,9.7055691 18.3630816,9.5464556 C18.3200911,9.387342 18.3673293,9.2178221 18.4868425,9.1023249 L19.0144525,8.5846651 L17.7414345,7.335574 L15.2100979,9.8193392 C14.7480136,10.252279 14.0207906,10.252279 13.5587062,9.8193392 L10.5410418,6.85839205 C10.4276913,6.74704005 10.2571365,6.71370424 10.1089666,6.77394078 C9.9607968,6.83417732 9.8642187,6.97611256 9.8643006,7.1335124 L9.8643006,9.8314141 C9.8692593,13.2976921 9.1208247,16.7251398 7.6689484,19.8850043 C7.4835159,20.2932056 7.097277,20.5791769 6.6464201,20.6420842 L0.52920474,21.4309488 C0.36353591,21.452792 0.19860481,21.3860707 0.09673981,21.2559993 C-0.0051252,21.1259279 -0.0283888,20.9523434 0.03574044,20.8008444 C0.09986968,20.6493454 0.24161149,20.5430368 0.40740087,20.5220932 L6.5184597,19.7341279 C6.6503485,19.7139284 6.7626915,19.6292337 6.816579,19.5093777 C8.2143414,16.4676127 8.934907,13.1682198 8.9301783,9.8314329 L8.9301783,7.1335312 C8.930114,6.6052975 9.2543164,6.12905211 9.7515798,5.92691216 C10.2488432,5.7247722 10.8212158,5.83655562 11.2017474,6.21012749 L14.2194118,9.1710652 C14.3107898,9.2601418 14.4582911,9.2601418 14.5496691,9.1710652 L17.0809485,6.68739379 L15.8078541,5.43824657 L15.2804733,5.95583152 C15.1627816,6.07311643 14.9900499,6.11946497 14.827928,6.07726152 C14.6658061,6.03505807 14.5391882,5.91078305 14.4961977,5.75166947 C14.4532072,5.5925559 14.5004454,5.42303596 14.6199586,5.30753885 L16.3351968,3.6241606 C16.452726,3.50614114 16.6258205,3.45922872 16.7884044,3.5013314 C16.9509884,3.54343407 17.0779659,3.66805303 17.1208654,3.82761703 C17.1637649,3.98718103 17.1159647,4.15706038 16.9957115,4.27240643 L16.4683879,4.78993517 L19.6752248,7.9364473 L20.2026916,7.4189186 C20.2902692,7.3329334 20.4090708,7.2846245 20.532949,7.2846245 C20.6568271,7.2846245 20.7756288,7.3329334 20.8632063,7.4189186 Z" id="strength" fill="#000000" fill-rule="nonzero"></path>
    </g>
</svg>