<?xml version="1.0" encoding="UTF-8"?>
<svg width="25px" height="22px" viewBox="0 0 25 22" version="1.1" xmlns="http://www.w3.org/2000/svg" xmlns:xlink="http://www.w3.org/1999/xlink">
    <title>yoga</title>
    <g id="Page-1" stroke="none" stroke-width="1" fill="none" fill-rule="evenodd">
        <path d="M13.4122767,12.1814981 L16.4935945,13.689145 C16.5693961,13.7258029 16.6175503,13.8025718 16.6175473,13.8867545 L16.6292285,16.6551564 L11.0039784,16.6551564 C10.8316954,16.6543708 10.672162,16.7458082 10.5857929,16.8948417 C10.4994238,17.0438752 10.4994238,17.227719 10.5857929,17.3767525 C10.672162,17.525786 10.8316954,17.6172234 11.0039784,17.6164378 L16.6332789,17.6164378 L16.6382094,18.7814376 C16.6392011,19.0461765 16.85417,19.2602136 17.118979,19.2602136 L17.1208592,19.2602136 C17.3863748,19.259161 17.6007724,19.0431355 17.5997485,18.7776882 L17.5791264,13.883005 C17.5792648,13.4325744 17.3217212,13.0217419 16.9161881,12.8254886 L13.8348703,11.3178417 C13.3260342,11.0705499 13.0713999,10.491066 13.2334383,9.9491333 L14.1578836,6.83433491 C14.2457792,6.54247069 14.5140703,6.34225786 14.8189518,6.34101118 L21.0820776,6.34101118 C21.2543607,6.34179676 21.413894,6.25035936 21.5002631,6.1013259 C21.5866323,5.95229243 21.5866323,5.76844856 21.5002631,5.6194151 C21.413894,5.47038164 21.2543607,5.37894424 21.0820776,5.3797248 L14.8189018,5.3797248 C14.0888422,5.38296643 13.4464585,5.86234192 13.2357385,6.56115714 L12.3117632,9.6759555 C12.0147304,10.6679155 12.4807421,11.7288858 13.4122767,12.1814981 Z M14.0967673,4.23068748 C14.306628,4.29639366 14.5252329,4.32994236 14.7451442,4.33019218 C15.8773391,4.33050382 16.8186751,3.45884724 16.9049739,2.33023698 C16.9912728,1.20162672 16.1934023,0.19705076 15.0743159,0.02530764 C13.9552294,-0.14643548 12.8927,0.57263003 12.6364164,1.67515319 C12.3801328,2.77767635 13.0166093,3.89147549 14.0967673,4.23068748 Z M13.5958156,1.80822204 C13.7235488,1.3982206 14.0605019,1.08758118 14.4795962,0.99345862 C14.8986904,0.89933606 15.3361645,1.03605023 15.6270291,1.35204062 C15.9178937,1.66803101 16.0178964,2.11522263 15.8893222,2.52496122 L15.8893222,2.52520118 C15.6898883,3.15654389 15.0170698,3.50751741 14.3850017,3.30992493 C13.7529336,3.11233245 13.3999643,2.44068469 13.5958156,1.80822204 Z M6.24957808,19.2602138 L6.24961808,19.2602138 C6.06285273,19.2600998 5.89304555,19.151885 5.81410203,18.9826678 C5.73515851,18.8134506 5.76135896,18.6138411 5.8813001,18.4707157 L11.0758358,12.2711543 C11.2471107,12.0701827 11.5484464,12.0448943 11.7508373,12.2145073 C11.9532281,12.3841204 11.9809396,12.685166 11.8129118,12.8888588 L6.61837611,19.0884202 C6.52693526,19.1974321 6.39188456,19.2603414 6.24957808,19.2602138 Z M6.47870171,6.34101118 C6.3064187,6.34179676 6.14688536,6.25035936 6.06051623,6.1013259 C5.97414709,5.95229243 5.97414709,5.76844856 6.06051623,5.6194151 C6.14688536,5.47038164 6.3064187,5.37894424 6.47870171,5.37972982 L11.4443638,5.37972982 C11.6166468,5.37894424 11.7761801,5.47038164 11.8625493,5.6194151 C11.9489184,5.76844856 11.9489184,5.95229243 11.8625493,6.1013259 C11.7761801,6.25035936 11.6166468,6.34179676 11.4443638,6.34101118 L6.47870171,6.34101118 Z M24.9305245,21.2705828 C25.0203877,21.4189909 25.0232652,21.6043001 24.9380531,21.7554254 C24.852841,21.9065506 24.6927694,22 24.5192421,22 L0.48083319,22 C0.30731947,22 0.14727079,21.9065168 0.06202921,21.7554238 C-0.02321237,21.6043307 -0.02042586,21.4190455 0.06932076,21.2705828 L2.71917402,16.8870506 C2.80641283,16.7431957 2.96242443,16.6552903 3.13069645,16.6551714 L4.72696106,16.6551714 C4.89924407,16.6543908 5.05877741,16.7458282 5.14514654,16.8948617 C5.23151568,17.0438952 5.23151568,17.227739 5.14514654,17.3767725 C5.05877741,17.5258059 4.89924407,17.6172434 4.72696106,17.6164578 L3.40182441,17.6164578 L1.33321109,21.0387086 L23.6671042,21.0387086 L21.5980109,17.6164578 L20.2730842,17.6164578 C20.1008012,17.6172434 19.9412679,17.5258059 19.8548987,17.3767725 C19.7685296,17.227739 19.7685296,17.0438952 19.8548987,16.8948617 C19.9412679,16.7458282 20.1008012,16.6543908 20.2730842,16.6551714 L21.8693888,16.6551714 C22.0376266,16.6551714 22.1936171,16.7431241 22.2806713,16.8870506 L24.9305245,21.2705828 Z" id="yoga" fill="#000000" fill-rule="nonzero"></path>
    </g>
</svg>